<svg width="24" height="24" viewBox="0 0 24 24" fill="none" xmlns="http://www.w3.org/2000/svg">
<path d="M16.5186 9.34686H21.0186V4.84686" stroke="#475156" stroke-width="1.5" stroke-linecap="round" stroke-linejoin="round"/>
<path d="M6.16895 6.16873C6.93431 5.40224 7.84329 4.79417 8.84387 4.37929C9.84445 3.9644 10.917 3.75085 12.0002 3.75085C13.0834 3.75085 14.1559 3.9644 15.1565 4.37929C16.1571 4.79417 17.0661 5.40224 17.8314 6.16873L21.0189 9.34685" stroke="#475156" stroke-width="1.5" stroke-linecap="round" stroke-linejoin="round"/>
<path d="M7.48145 14.6531H2.98145V19.1531" stroke="#475156" stroke-width="1.5" stroke-linecap="round" stroke-linejoin="round"/>
<path d="M17.8314 17.8313C17.0661 18.5977 16.1571 19.2058 15.1565 19.6207C14.1559 20.0356 13.0834 20.2491 12.0002 20.2491C10.917 20.2491 9.84445 20.0356 8.84387 19.6207C7.84329 19.2058 6.93431 18.5977 6.16895 17.8313L2.98145 14.6531" stroke="#475156" stroke-width="1.5" stroke-linecap="round" stroke-linejoin="round"/>
</svg>
