<svg width="108" height="20" viewBox="0 0 108 20" fill="none" xmlns="http://www.w3.org/2000/svg">
<path d="M10.3434 14.8984L14.2809 17.3984C14.7887 17.7188 15.4137 17.2422 15.2653 16.6563L14.1246 12.1719C14.0938 12.0476 14.0987 11.9171 14.1388 11.7955C14.1789 11.6738 14.2525 11.566 14.3512 11.4844L17.8824 8.53907C18.3434 8.15625 18.109 7.38282 17.5074 7.34375L12.8981 7.04688C12.7723 7.03956 12.6514 6.99577 12.5501 6.92085C12.4488 6.84592 12.3716 6.74312 12.3278 6.625L10.609 2.29688C10.5635 2.1718 10.4806 2.06376 10.3716 1.98741C10.2626 1.91106 10.1327 1.8701 9.99963 1.8701C9.86654 1.8701 9.73667 1.91106 9.62765 1.98741C9.51863 2.06376 9.43575 2.1718 9.39026 2.29688L7.67151 6.625C7.6277 6.74312 7.55044 6.84592 7.44916 6.92085C7.34787 6.99577 7.22696 7.03956 7.10119 7.04688L2.49182 7.34375C1.89026 7.38282 1.65588 8.15625 2.11682 8.53907L5.64807 11.4844C5.74677 11.566 5.8204 11.6738 5.86049 11.7955C5.90057 11.9171 5.90547 12.0476 5.87463 12.1719L4.81994 16.3281C4.64026 17.0313 5.39026 17.6016 5.99182 17.2188L9.65588 14.8984C9.75863 14.8331 9.87787 14.7984 9.99963 14.7984C10.1214 14.7984 10.2406 14.8331 10.3434 14.8984Z" fill="#FA8232"/>
<path d="M32.3434 14.8984L36.2809 17.3984C36.7887 17.7188 37.4137 17.2422 37.2653 16.6563L36.1246 12.1719C36.0938 12.0476 36.0987 11.9171 36.1388 11.7955C36.1789 11.6738 36.2525 11.566 36.3512 11.4844L39.8824 8.53907C40.3434 8.15625 40.109 7.38282 39.5074 7.34375L34.8981 7.04688C34.7723 7.03956 34.6514 6.99577 34.5501 6.92085C34.4488 6.84592 34.3716 6.74312 34.3278 6.625L32.609 2.29688C32.5635 2.1718 32.4806 2.06376 32.3716 1.98741C32.2626 1.91106 32.1327 1.8701 31.9996 1.8701C31.8665 1.8701 31.7367 1.91106 31.6277 1.98741C31.5186 2.06376 31.4358 2.1718 31.3903 2.29688L29.6715 6.625C29.6277 6.74312 29.5504 6.84592 29.4492 6.92085C29.3479 6.99577 29.227 7.03956 29.1012 7.04688L24.4918 7.34375C23.8903 7.38282 23.6559 8.15625 24.1168 8.53907L27.6481 11.4844C27.7468 11.566 27.8204 11.6738 27.8605 11.7955C27.9006 11.9171 27.9055 12.0476 27.8746 12.1719L26.8199 16.3281C26.6403 17.0313 27.3903 17.6016 27.9918 17.2188L31.6559 14.8984C31.7586 14.8331 31.8779 14.7984 31.9996 14.7984C32.1214 14.7984 32.2406 14.8331 32.3434 14.8984Z" fill="#FA8232"/>
<path d="M54.3434 14.8984L58.2809 17.3984C58.7887 17.7188 59.4137 17.2422 59.2653 16.6563L58.1246 12.1719C58.0938 12.0476 58.0987 11.9171 58.1388 11.7955C58.1789 11.6738 58.2525 11.566 58.3512 11.4844L61.8824 8.53907C62.3434 8.15625 62.109 7.38282 61.5074 7.34375L56.8981 7.04688C56.7723 7.03956 56.6514 6.99577 56.5501 6.92085C56.4488 6.84592 56.3716 6.74312 56.3278 6.625L54.609 2.29688C54.5635 2.1718 54.4806 2.06376 54.3716 1.98741C54.2626 1.91106 54.1327 1.8701 53.9996 1.8701C53.8665 1.8701 53.7367 1.91106 53.6277 1.98741C53.5186 2.06376 53.4358 2.1718 53.3903 2.29688L51.6715 6.625C51.6277 6.74312 51.5504 6.84592 51.4492 6.92085C51.3479 6.99577 51.227 7.03956 51.1012 7.04688L46.4918 7.34375C45.8903 7.38282 45.6559 8.15625 46.1168 8.53907L49.6481 11.4844C49.7468 11.566 49.8204 11.6738 49.8605 11.7955C49.9006 11.9171 49.9055 12.0476 49.8746 12.1719L48.8199 16.3281C48.6403 17.0313 49.3903 17.6016 49.9918 17.2188L53.6559 14.8984C53.7586 14.8331 53.8779 14.7984 53.9996 14.7984C54.1214 14.7984 54.2406 14.8331 54.3434 14.8984Z" fill="#FA8232"/>
<path d="M76.3434 14.8984L80.2809 17.3984C80.7887 17.7188 81.4137 17.2422 81.2653 16.6563L80.1246 12.1719C80.0938 12.0476 80.0987 11.9171 80.1388 11.7955C80.1789 11.6738 80.2525 11.566 80.3512 11.4844L83.8824 8.53907C84.3434 8.15625 84.109 7.38282 83.5074 7.34375L78.8981 7.04688C78.7723 7.03956 78.6514 6.99577 78.5501 6.92085C78.4488 6.84592 78.3716 6.74312 78.3278 6.625L76.609 2.29688C76.5635 2.1718 76.4806 2.06376 76.3716 1.98741C76.2626 1.91106 76.1327 1.8701 75.9996 1.8701C75.8665 1.8701 75.7367 1.91106 75.6277 1.98741C75.5186 2.06376 75.4358 2.1718 75.3903 2.29688L73.6715 6.625C73.6277 6.74312 73.5504 6.84592 73.4492 6.92085C73.3479 6.99577 73.227 7.03956 73.1012 7.04688L68.4918 7.34375C67.8903 7.38282 67.6559 8.15625 68.1168 8.53907L71.6481 11.4844C71.7468 11.566 71.8204 11.6738 71.8605 11.7955C71.9006 11.9171 71.9055 12.0476 71.8746 12.1719L70.8199 16.3281C70.6403 17.0313 71.3903 17.6016 71.9918 17.2188L75.6559 14.8984C75.7586 14.8331 75.8779 14.7984 75.9996 14.7984C76.1214 14.7984 76.2406 14.8331 76.3434 14.8984Z" fill="#FA8232"/>
<path d="M98.3434 14.8984L102.281 17.3984C102.789 17.7188 103.414 17.2422 103.265 16.6563L102.125 12.1719C102.094 12.0476 102.099 11.9171 102.139 11.7955C102.179 11.6738 102.252 11.566 102.351 11.4844L105.882 8.53907C106.343 8.15625 106.109 7.38282 105.507 7.34375L100.898 7.04688C100.772 7.03956 100.651 6.99577 100.55 6.92085C100.449 6.84592 100.372 6.74312 100.328 6.625L98.609 2.29688C98.5635 2.1718 98.4806 2.06376 98.3716 1.98741C98.2626 1.91106 98.1327 1.8701 97.9996 1.8701C97.8665 1.8701 97.7367 1.91106 97.6277 1.98741C97.5186 2.06376 97.4358 2.1718 97.3903 2.29688L95.6715 6.625C95.6277 6.74312 95.5504 6.84592 95.4492 6.92085C95.3479 6.99577 95.227 7.03956 95.1012 7.04688L90.4918 7.34375C89.8903 7.38282 89.6559 8.15625 90.1168 8.53907L93.6481 11.4844C93.7468 11.566 93.8204 11.6738 93.8605 11.7955C93.9006 11.9171 93.9055 12.0476 93.8746 12.1719L92.8199 16.3281C92.6403 17.0313 93.3903 17.6016 93.9918 17.2188L97.6559 14.8984C97.7586 14.8331 97.8779 14.7984 97.9996 14.7984C98.1214 14.7984 98.2406 14.8331 98.3434 14.8984Z" fill="#FA8232"/>
</svg>
