<svg width="552" height="72" viewBox="0 0 552 72" fill="none" xmlns="http://www.w3.org/2000/svg">
<g opacity="0.6">
<g clip-path="url(#clip0_2570_13949)">
<path d="M8.8671 24.2632H9.50737C11.7302 24.3115 13.9168 25.2046 15.4872 26.7856C14.9074 27.377 14.3154 27.9442 13.7476 28.5356C12.8658 27.739 11.8027 27.1235 10.6429 26.9063C8.9275 26.5442 7.07918 26.8701 5.6416 27.8477C4.07113 28.8735 3.00804 30.6115 2.77851 32.4701C2.52482 34.3046 3.04428 36.2356 4.24025 37.6597C5.38791 39.0477 7.13958 39.9166 8.95166 39.977C10.6429 40.0735 12.4067 39.5545 13.6389 38.3718C14.6054 37.539 15.0523 36.2718 15.1973 35.0408C13.1919 35.0408 11.1866 35.0528 9.1812 35.0408V32.5546H17.6255C18.0604 35.2218 17.4322 38.227 15.4027 40.1339C14.0497 41.4856 12.1772 42.2821 10.2684 42.439C8.42012 42.6201 6.5114 42.2701 4.86844 41.377C2.89932 40.327 1.32884 38.5528 0.55569 36.4649C-0.169142 34.5459 -0.181223 32.3735 0.495288 30.4425C1.1114 28.6804 2.29529 27.1235 3.81744 26.0373C5.27918 24.9632 7.05502 24.3718 8.8671 24.2632Z" fill="white"/>
<path d="M57.3101 24.8906H59.8953V42.1251C59.0376 42.1251 58.1678 42.1371 57.3101 42.113C57.3221 36.3803 57.3101 30.6354 57.3101 24.8906Z" fill="white"/>
<path d="M23.3758 30.8649C24.9705 30.5631 26.698 30.9011 28.0148 31.8545C29.2107 32.6994 30.0443 34.0269 30.298 35.4752C30.6242 37.1528 30.2134 38.9873 29.1262 40.3149C27.9544 41.7993 26.0335 42.5959 24.1611 42.4752C22.4456 42.3786 20.7785 41.5218 19.7637 40.1218C18.6161 38.5769 18.3382 36.4528 18.9664 34.6425C19.5946 32.6994 21.3705 31.2149 23.3758 30.8649ZM23.7382 33.158C23.0859 33.3269 22.4819 33.7011 22.047 34.2321C20.8752 35.6321 20.9476 37.9131 22.2403 39.2166C22.9772 39.9649 24.0886 40.3149 25.1154 40.1097C26.0698 39.9407 26.9033 39.3011 27.3624 38.4562C28.1597 37.02 27.9302 35.0407 26.7101 33.9183C25.9248 33.1942 24.7772 32.8925 23.7382 33.158Z" fill="white"/>
<path d="M36.1812 30.8648C38.0053 30.5148 39.9986 31.0217 41.3637 32.301C43.5865 34.2924 43.8282 38.0217 41.9315 40.3148C40.7839 41.763 38.9235 42.5596 37.0872 42.4751C35.3355 42.4268 33.608 41.5579 32.5691 40.1217C31.3973 38.5406 31.1436 36.3682 31.808 34.5217C32.4724 32.6389 34.212 31.2027 36.1812 30.8648ZM36.5436 33.1579C35.8912 33.3268 35.2872 33.701 34.8523 34.22C33.6926 35.5958 33.7409 37.8406 34.9852 39.1561C35.7221 39.9406 36.8698 40.3268 37.9328 40.1096C38.8751 39.9286 39.7208 39.301 40.1798 38.4562C40.9651 37.0079 40.7355 35.0286 39.5033 33.9062C38.7181 33.182 37.5704 32.8924 36.5436 33.1579Z" fill="white"/>
<path d="M47.0416 31.5647C48.4309 30.6957 50.2792 30.4543 51.7772 31.2026C52.2483 31.4078 52.6349 31.7578 53.0094 32.1078C53.0215 31.7819 53.0094 31.444 53.0215 31.1061C53.8309 31.1181 54.6403 31.1061 55.4617 31.1181V41.7629C55.4497 43.3681 55.0389 45.0698 53.8792 46.2405C52.6107 47.5319 50.6658 47.9302 48.9141 47.6646C47.0416 47.3871 45.4107 46.0233 44.6859 44.2974C45.4107 43.9474 46.1718 43.6698 46.9208 43.344C47.3436 44.3336 48.2013 45.1784 49.2765 45.3715C50.3517 45.5647 51.596 45.2991 52.2966 44.406C53.0456 43.4888 53.0456 42.2336 53.0094 41.1112C52.4537 41.6543 51.8134 42.1371 51.0403 42.3181C49.3611 42.7888 47.5128 42.2095 46.2201 41.075C44.9154 39.9405 44.1423 38.1905 44.2148 36.4526C44.251 34.4854 45.3624 32.5905 47.0416 31.5647ZM49.5423 33.1095C48.8054 33.2302 48.1168 33.6405 47.6456 34.2078C46.5101 35.5595 46.5101 37.7198 47.6577 39.0474C48.3101 39.8319 49.3611 40.2664 50.3758 40.1578C51.3302 40.0612 52.2121 39.4578 52.6832 38.625C53.4805 37.2129 53.3477 35.294 52.2725 34.0629C51.6081 33.3026 50.545 32.9285 49.5423 33.1095Z" fill="white"/>
<path d="M63 32.1804C64.4497 30.8287 66.6846 30.3701 68.545 31.0821C70.3087 31.7459 71.4322 33.4235 72 35.1494C69.3785 36.2356 66.7691 37.3097 64.1477 38.3959C64.5101 39.0838 65.0658 39.7114 65.8148 39.9649C66.8658 40.339 68.1222 40.2062 69.004 39.5062C69.3544 39.2407 69.6322 38.8907 69.898 38.5528C70.5624 38.9993 71.2269 39.4338 71.8913 39.8804C70.949 41.2924 69.3665 42.2821 67.6631 42.439C65.7785 42.6683 63.7732 41.9442 62.553 40.4718C60.5476 38.1545 60.7409 34.2683 63 32.1804ZM64.2926 34.4132C63.8819 35.0045 63.7128 35.7287 63.7248 36.4407C65.4765 35.7166 67.2282 34.9925 68.9799 34.2563C68.6899 33.5804 67.9893 33.17 67.2765 33.0614C66.1289 32.8563 64.9329 33.4718 64.2926 34.4132Z" fill="white"/>
</g>
<path fill-rule="evenodd" clip-rule="evenodd" d="M164.664 46.9783C160.495 50.0604 154.432 51.7025 149.203 51.7025C141.877 51.7025 135.309 48.9994 130.307 44.5025C129.928 44.1489 130.256 43.6689 130.736 43.9468C136.117 47.0794 142.761 48.9488 149.633 48.9488C154.256 48.9488 159.359 47.9888 164.057 45.9931C164.765 45.7152 165.346 46.4731 164.664 46.9783Z" fill="white"/>
<path fill-rule="evenodd" clip-rule="evenodd" d="M166.406 44.9826C165.876 44.3006 162.87 44.6542 161.531 44.8311C161.127 44.8816 161.051 44.5279 161.43 44.2753C163.83 42.5827 167.745 43.088 168.2 43.6437C168.655 44.1995 168.074 48.1404 165.825 50.0098C165.472 50.2877 165.143 50.1361 165.295 49.7572C165.8 48.4941 166.937 45.69 166.406 44.9826Z" fill="white"/>
<path fill-rule="evenodd" clip-rule="evenodd" d="M161.607 32.402V30.7599C161.607 30.5073 161.783 30.3558 162.011 30.3558H169.337C169.564 30.3558 169.766 30.5326 169.766 30.7599V32.1494C169.766 32.3767 169.564 32.6799 169.211 33.1851L165.421 38.5913C166.836 38.566 168.326 38.7681 169.589 39.4754C169.867 39.627 169.943 39.8796 169.968 40.107V41.8501C169.968 42.1027 169.716 42.3806 169.438 42.229C167.19 41.0417 164.183 40.9154 161.708 42.2543C161.455 42.3806 161.177 42.128 161.177 41.8754V40.2081C161.177 39.9554 161.177 39.5007 161.455 39.0965L165.851 32.8062H162.036C161.809 32.8062 161.607 32.6294 161.607 32.402ZM134.905 42.5827H132.682C132.479 42.5574 132.303 42.4059 132.277 42.2038V30.7852C132.277 30.5579 132.479 30.381 132.707 30.381H134.778C135.006 30.381 135.157 30.5579 135.183 30.7599V32.2504H135.233C135.764 30.8105 136.799 30.1284 138.163 30.1284C139.553 30.1284 140.437 30.8105 141.043 32.2504C141.574 30.8105 142.812 30.1284 144.125 30.1284C145.06 30.1284 146.07 30.5073 146.702 31.3915C147.409 32.3515 147.258 33.7409 147.258 34.9788V42.2038C147.258 42.4311 147.056 42.608 146.828 42.608H144.631C144.403 42.5827 144.226 42.4059 144.226 42.2038V36.1408C144.226 35.6608 144.277 34.4482 144.176 33.9935C143.999 33.2357 143.519 33.0083 142.862 33.0083C142.332 33.0083 141.751 33.362 141.523 33.943C141.296 34.524 141.321 35.484 141.321 36.1408V42.2038C141.321 42.4311 141.119 42.608 140.892 42.608H138.669C138.441 42.5827 138.264 42.4059 138.264 42.2038V36.1408C138.264 34.8777 138.467 32.983 136.9 32.983C135.309 32.983 135.359 34.8019 135.359 36.1408V42.2038C135.334 42.4059 135.157 42.5827 134.905 42.5827ZM176.082 30.1284C179.391 30.1284 181.185 32.9578 181.185 36.5703C181.185 40.0565 179.214 42.8353 176.082 42.8353C172.848 42.8353 171.08 40.006 171.08 36.4692C171.055 32.9072 172.848 30.1284 176.082 30.1284ZM176.082 32.4778C174.44 32.4778 174.339 34.7261 174.339 36.1156C174.339 37.505 174.313 40.4859 176.057 40.4859C177.774 40.4859 177.875 38.086 177.875 36.6208C177.875 35.6608 177.825 34.4988 177.547 33.5893C177.294 32.7809 176.789 32.4778 176.082 32.4778ZM185.454 42.5827H183.231C183.004 42.5574 182.827 42.3806 182.827 42.1785V30.7347C182.852 30.5326 183.029 30.3558 183.256 30.3558H185.328C185.53 30.3558 185.681 30.5073 185.732 30.6842V32.4273H185.782C186.414 30.861 187.273 30.1284 188.814 30.1284C189.799 30.1284 190.784 30.4821 191.416 31.4673C191.997 32.3767 191.997 33.9177 191.997 35.0293V42.229C191.972 42.4311 191.795 42.5827 191.567 42.5827H189.344C189.142 42.5574 188.965 42.4059 188.94 42.229V36.0145C188.94 34.7514 189.092 32.9325 187.551 32.9325C187.02 32.9325 186.515 33.2862 186.262 33.842C185.959 34.5493 185.909 35.2314 185.909 36.0145V42.1785C185.883 42.4059 185.681 42.5827 185.454 42.5827ZM155.771 37.1261C155.771 37.985 155.796 38.7176 155.367 39.5007C155.013 40.1323 154.457 40.5112 153.826 40.5112C152.967 40.5112 152.462 39.8544 152.462 38.8944C152.462 36.9997 154.154 36.6461 155.771 36.6461V37.1261ZM158.019 42.5575C157.868 42.6838 157.666 42.709 157.489 42.608C156.756 42.0017 156.605 41.6985 156.201 41.1175C154.988 42.3553 154.104 42.7343 152.538 42.7343C150.668 42.7343 149.203 41.5722 149.203 39.2733C149.203 37.4545 150.188 36.2419 151.578 35.6356C152.79 35.1051 154.483 35.004 155.771 34.8524V34.5746C155.771 34.0441 155.822 33.4125 155.493 32.9578C155.215 32.5536 154.71 32.3767 154.255 32.3767C153.396 32.3767 152.639 32.8062 152.462 33.7156C152.411 33.9177 152.285 34.1198 152.083 34.1198L149.936 33.8925C149.759 33.8419 149.557 33.7156 149.607 33.4378C150.112 30.8105 152.462 30.0273 154.584 30.0273C155.67 30.0273 157.085 30.3052 157.944 31.1389C159.03 32.1494 158.929 33.5135 158.929 34.9788V38.4397C158.929 39.4754 159.358 39.9302 159.763 40.5112C159.914 40.7133 159.939 40.9659 159.763 41.0922C159.283 41.4712 158.474 42.1785 158.019 42.5575ZM126.593 37.1261C126.593 37.985 126.619 38.7176 126.189 39.5007C125.836 40.1323 125.28 40.5112 124.648 40.5112C123.789 40.5112 123.284 39.8544 123.284 38.8944C123.284 36.9997 124.977 36.6461 126.593 36.6461V37.1261ZM128.816 42.5575C128.665 42.6838 128.463 42.709 128.286 42.608C127.553 42.0017 127.402 41.6985 126.998 41.1175C125.785 42.3553 124.901 42.7343 123.335 42.7343C121.465 42.7343 120 41.5722 120 39.2733C120 37.4545 120.985 36.2419 122.375 35.6356C123.587 35.1051 125.28 35.004 126.568 34.8524V34.5746C126.568 34.0441 126.619 33.4125 126.29 32.9578C126.012 32.5536 125.507 32.3767 125.052 32.3767C124.194 32.3767 123.436 32.8062 123.259 33.7156C123.208 33.9177 123.082 34.1198 122.88 34.1198L120.733 33.8925C120.556 33.8419 120.354 33.7156 120.404 33.4378C120.909 30.8105 123.259 30.0273 125.381 30.0273C126.467 30.0273 127.882 30.3052 128.741 31.1389C129.827 32.1494 129.726 33.5135 129.726 34.9788V38.4397C129.726 39.4754 130.155 39.9302 130.56 40.5112C130.711 40.7133 130.736 40.9659 130.56 41.0922C130.08 41.4712 129.271 42.1785 128.816 42.5575Z" fill="white"/>
<path d="M247.337 34.281C247.337 35.9205 246.543 37.0309 244.531 37.0309H243.895V31.8095C244.121 31.7967 244.333 31.7967 244.531 31.7967C246.436 31.7966 247.337 32.6952 247.337 34.281ZM245.272 39.3043C248.872 39.3043 251.148 37.4533 251.148 34.2287C251.148 30.6856 248.713 29.417 244.743 29.417C243.208 29.417 241.355 29.5224 240.032 29.681V42.3187H243.896V39.3043H245.272ZM297.04 34.281C297.04 35.9205 296.247 37.0309 294.235 37.0309H293.601V31.8095C293.825 31.7967 294.037 31.7967 294.235 31.7967C296.14 31.7966 297.04 32.6952 297.04 34.281ZM294.978 39.3043C298.574 39.3043 300.852 37.4533 300.852 34.2287C300.852 30.6856 298.417 29.417 294.447 29.417C292.912 29.417 291.058 29.5224 289.735 29.681V42.3187H293.601V39.3043H294.978ZM305.879 32.9062C305.879 32.2191 306.568 31.9014 307.679 31.9014C308.897 31.9014 310.221 32.166 311.12 32.5375L310.803 29.7871C309.797 29.5756 308.897 29.417 307.256 29.417C304.133 29.417 302.016 30.6468 302.016 33.2245C302.016 37.6648 308.052 36.7667 308.052 38.8287C308.052 39.6211 307.468 40.0438 306.039 40.0438C304.77 40.0438 302.81 39.6211 301.646 39.0398L302.071 41.9488C303.234 42.3717 304.822 42.5825 306.093 42.5825C309.321 42.5825 311.968 41.5247 311.968 38.3518C311.968 34.1233 305.879 34.9157 305.879 32.9062ZM286.825 29.681H282.961V42.3187H286.825V29.681ZM271.156 29.681H267.292V42.3187H271.156V29.681ZM277.879 39.7799V29.681H274.015V42.3187H281.002L281.584 39.7799H277.879ZM264.434 29.681H260.57V34.7041H256.547V29.681H252.682V42.3187H256.547V37.3478H260.57V42.3187H264.434L264.434 29.681Z" fill="white"/>
<path fill-rule="evenodd" clip-rule="evenodd" d="M366.444 41.2452H363.667V33.2835H360.455V30.8936H369.827V33.2835H366.444V41.2452ZM371.141 33.6252C371.56 31.1887 373.733 30.8316 375.813 30.8316C379.382 30.8316 380.639 31.7161 380.639 35.4563C380.639 39.2894 380.546 41.3226 375.89 41.3226C374.044 41.3226 371.84 41.1832 371.219 39.0571C371.017 38.3586 371.002 37.6295 371.002 36.9V36.1391C371.002 35.3166 371.002 34.4477 371.141 33.6252ZM373.842 36.7132C373.842 38.1722 373.873 38.948 375.595 38.948C377.489 38.948 377.783 38.4822 377.783 36.7132C377.783 36.2168 377.799 35.7047 377.799 35.2079C377.799 33.8266 377.582 33.2061 376.092 33.2061C373.92 33.2061 373.888 33.4235 373.842 36.0924V36.7132H373.842ZM388.754 34.1217C388.754 33.0661 388.381 32.9267 387.388 32.9267H387.109C386.379 32.9267 385.604 32.9577 385.604 33.8733C385.604 34.5098 385.79 34.8045 386.457 34.8512C388.862 35.0529 391.703 34.5718 391.703 37.9085C391.703 38.7934 391.703 39.9106 390.973 40.5314C390.119 41.2452 388.94 41.3072 387.854 41.3072H387.171C384.315 41.3072 382.825 41.1832 382.825 37.8928H385.463C385.463 38.6686 385.65 39.1344 386.519 39.1344H387.714C388.412 39.1344 388.971 39.041 388.971 38.1098C388.971 37.1943 388.427 37.1943 387.651 37.148C384.656 36.9463 382.841 37.2253 382.841 33.7802C382.841 31.9798 383.554 31.0333 385.401 30.8936C386.006 30.8469 386.611 30.8159 387.217 30.8159C389.622 30.8159 391.407 30.8626 391.407 33.7959C391.407 33.9046 391.391 34.0133 391.391 34.122H388.754V34.1217ZM403.026 41.2452H400.248V37.179H396.647V41.2452H393.869V30.8936H396.647V34.8045H400.248V30.8936H403.026V41.2452ZM408.45 41.2452H405.673V30.8936H408.45V41.2452ZM411.115 30.8936H416.748C418.626 30.8936 419.836 31.4057 419.836 33.5319C419.836 34.7268 419.728 35.689 418.223 35.9374V36.03C419.62 36.1544 420.007 36.8992 420.007 38.2648C420.007 40.5927 419.232 41.2449 416.795 41.2449H411.115V30.8936ZM415.662 35.0372C416.423 35.0062 417.089 35.0996 417.089 34.1527C417.089 33.4078 416.888 33.1748 416.143 33.1748H413.893V35.0372H415.662ZM415.74 38.9637C416.609 38.9637 417.245 38.948 417.245 37.9395C417.245 36.9773 416.795 36.9463 415.926 36.9463H413.893V38.9637H415.74ZM428.571 41.2452H431.396L428.245 30.8936H424.039L420.935 41.2452H423.822L424.414 39.1658H427.971L428.571 41.2452ZM424.984 37.1637L426.181 32.9577L427.394 37.1637H424.984Z" fill="white"/>
<g clip-path="url(#clip1_2570_13949)">
<path fill-rule="evenodd" clip-rule="evenodd" d="M542.965 38.6921C549.078 35.7011 552.45 32.2963 551.952 29.4765C550.903 23.5502 532.941 22.5957 514.404 25.8866C505.921 27.3929 497.808 29.6539 492.316 31.8961C492.607 31.8776 492.811 31.8911 492.811 31.8911C495.185 31.9567 495.04 33.4327 495.04 33.4327L495.044 34.3344H493.151V33.7224C493.151 33.2881 492.622 33.259 492.622 33.259C492.218 33.259 492.123 33.5339 492.123 33.5339C491.899 33.9534 492.282 34.3156 492.282 34.3156C492.478 34.5331 493.462 34.9887 493.462 34.9887C493.781 35.112 494.294 35.4303 494.294 35.4303C495.257 36.0092 495.17 37.1091 495.17 37.1091V37.8334C495.054 39.6286 492.579 39.5774 492.579 39.5774C489.987 39.5774 490.044 37.8773 490.044 37.8773V36.9887H492.06V37.6007C492.06 38.1218 492.564 38.1452 492.564 38.1452C493.114 38.1665 493.161 37.6343 493.161 37.6343C493.236 37.1169 492.665 36.7912 492.665 36.7912C492.162 36.5298 491.66 36.2645 491.16 35.9952C490.697 35.6913 490.509 35.416 490.509 35.416C490.175 34.9965 490.198 34.3447 490.198 34.3447V33.7801C490.198 32.9985 490.408 32.7744 490.408 32.7744C490.417 32.7575 490.426 32.7409 490.435 32.7244C483.664 35.8535 479.519 39.4803 480.044 42.4623C481.11 48.5115 498.049 49.305 517.973 46.2366C527.147 44.8241 535.13 42.2235 541.172 39.5303C541.129 39.5323 541.083 39.5323 541.04 39.5323C541.04 39.5323 538.597 39.7298 538.54 37.7613V33.9538C538.54 33.9538 538.236 31.8551 540.972 31.8551C540.972 31.8551 542.753 31.7973 543.223 32.8539C543.223 32.8539 543.455 33.1365 543.394 34.3049H541.496V33.7064C541.496 33.7064 541.493 33.223 541.001 33.223C541.001 33.223 540.486 33.2447 540.486 33.6499V37.5872C540.486 37.5872 540.465 38.1157 541.044 38.1157C541.044 38.1157 541.519 38.105 541.519 37.5491V36.4106H541.001V35.3504H543.439V37.5872C543.439 37.5872 543.432 38.0575 543.237 38.3324C543.238 38.3328 543.04 38.6356 542.965 38.6921ZM536.018 39.3304H533.783L531.79 34.9334H531.706L531.819 39.33H529.944V32.1402H532.247L534.172 36.5016H534.255L534.119 32.1394H536.018V39.3304ZM524.267 37.5446C524.267 38.1538 524.845 38.1231 524.845 38.1231C525.396 38.1231 525.368 37.5295 525.368 37.5295V32.1091H527.377V37.595C527.377 39.5717 524.875 39.5418 524.875 39.5418C521.993 39.5418 522.204 37.5008 522.204 37.5008V32.1087H524.26L524.267 37.5446ZM517.95 34.3344V33.7224C517.95 33.2877 517.422 33.259 517.422 33.259C517.017 33.259 516.922 33.5339 516.922 33.5339C516.698 33.9534 517.082 34.3156 517.082 34.3156C517.278 34.5323 518.262 34.9887 518.262 34.9887C518.58 35.1116 519.094 35.4303 519.094 35.4303C520.057 36.0092 519.97 37.1091 519.97 37.1091V37.8334C519.854 39.6286 517.379 39.5778 517.379 39.5778C514.787 39.5778 514.844 37.8773 514.844 37.8773V36.9887H516.861V37.6007C516.861 38.1218 517.364 38.1452 517.364 38.1452C517.915 38.1665 517.96 37.6343 517.96 37.6343C518.036 37.1169 517.466 36.7912 517.466 36.7912C516.962 36.5297 516.46 36.2644 515.96 35.9952C515.496 35.6913 515.309 35.416 515.309 35.416C514.976 34.996 514.997 34.3443 514.997 34.3443V33.7797C514.997 32.9981 515.207 32.774 515.207 32.774C515.743 31.7678 517.61 31.8907 517.61 31.8907C519.984 31.9563 519.839 33.4327 519.839 33.4327L519.844 34.3344H517.95ZM508.019 32.1382L508.625 36.0735H508.773L509.406 32.1386H512.537L512.739 39.3291H510.857L510.812 33.9129H510.682L509.702 39.3279H507.734L506.741 33.9112H506.594L506.571 39.3295H504.7L504.858 32.1382H508.019ZM500.675 39.3214L499.938 33.747H499.773L499.035 39.3214H497.021L498.265 32.132H501.446L502.691 39.3214H500.675Z" fill="white"/>
</g>
</g>
<defs>
<clipPath id="clip0_2570_13949">
<rect width="72" height="72" fill="white"/>
</clipPath>
<clipPath id="clip1_2570_13949">
<rect width="72" height="72" fill="white" transform="translate(480)"/>
</clipPath>
</defs>
</svg>
